X-Men.Trilogy 1-3.mkv





General
Complete name                    : X-Men.2000.mkv
Format                           : Matroska
File size                        : 784 MiB
Duration                         : 1h 40mn
Overall bit rate                 : 1 096 Kbps
Writing application              : HandBrake 0.9.4

Video
ID                               : 1
Format                           : AVC
Duration                         : 1h 40mn
Width                            : 712 pixels
Height                           : 434 pixels
Display aspect ratio             : 2.35:1
Resolution                       : 8 bits
Colorimetry                      : 4:2:0
Scan type                        : Progressive
Writing library                  : x264 core 79

Audio
ID                               : 2
Format                           : AAC
Duration                         : 1h 40mn
Channel(s)                       : 2 channels
Channel positions                : Front: L R
Sampling rate                    : 48.0 KHz
Language                         : English

Text #1
Language                         : English

Text #2
Language                         : Danish

Text #3
Language                         : Czech

Text #4
Language                         : Finnish

Text #5
Language                         : Hebrew

Text #6
Language                         : Hungarian

Text #7
Language                         : Icelandic

Text #8
Language                         : Norwegian

Text #9
Language                         : Polish

Text #10
Language                         : Portuguese

Menu
00:00:00.000                     : Chapter 1
00:04:04.080                     : Chapter 2
 
http://www.imdb.com/title/tt0120903/

**********************************************************************


General
Complete name                    : X2.2003.mkv
Format                           : Matroska
File size                        : 1.21 GiB
Duration                         : 2h 8mn
Overall bit rate                 : 1 353 Kbps
Writing application              : HandBrake 0.9.4

Video
ID                               : 1
Format                           : AVCC
Duration                         : 2h 8mn
Bit rate                         : 878 Kbps
Width                            : 720 pixels
Height                           : 428 pixels
Display aspect ratio             : 2.35:1
Resolution                       : 8 bits
Colorimetry                      : 4:2:0
Scan type                        : Progressive
Bits/(Pixel*Frame)               : 0.114
Stream size                      : 806 MiB (65%)
Writing library                  : x264 core 79


Audio
ID                               : 2
Format                           : AC-3
Duration                         : 2h 8mn
Bit rate mode                    : Constant
Bit rate                         : 448 Kbps
Channel(s)                       : 6 channels
Channel positions                : Front: L C R, Side: L R, LFE
Sampling rate                    : 48.0 KHz
Stream size                      : 411 MiB (33%)
Language                         : English

Text #1
Language                         : Danish

Text #2
Language                         : Dutch

Text #3
Language                         : English

Text #4
Language                         : Finnish

Text #5
Language                         : Hungarian

Text #6
Language                         : Icelandic

Text #7
Language                         : Norwegian

Text #8
Language                         : Swedish

Text #9
Language                         : Hungarian

Menu
00:00:00.000                     : Chapter 1
00:01:45.240                     : Chapter 2 
http://www.imdb.com/title/tt0290334/

**********************************************************************


General
Complete name                    : X3.The Last Stand.2006.mkv
Format                           : Matroska
File size                        : 1.17 GiB
Duration                         : 1h 39mn
Overall bit rate                 : 1 671 Kbps
Writing application              : HandBrake 0.9.4

Video
ID                               : 1
Format                           : AVC
Duration                         : 1h 39mn
Bit rate                         : 1 190 Kbps
Width                            : 720 pixels
Height                           : 428 pixels
Display aspect ratio             : 2.35:1
Resolution                       : 8 bits
Colorimetry                      : 4:2:0
Scan type                        : Progressive
Bits/(Pixel*Frame)               : 0.154
Stream size                      : 850 MiB (71%)
Writing library                  : x264 core 79


Audio
ID                               : 2
Format                           : AC-3
Duration                         : 1h 39mn
Bit rate mode                    : Constant
Bit rate                         : 448 Kbps
Channel(s)                       : 6 channels
Channel positions                : Front: L C R, Side: L R, LFE
Sampling rate                    : 48.0 KHz
Stream size                      : 320 MiB (27%)
Language                         : English

Text #1
Language                         : English

Text #2
Language                         : Danish

Text #3
Language                         : Finnish

Text #4
Language                         : Hungarian

Text #5
Language                         : Norwegian

Text #6
Language                         : Swedish

Menu
00:00:00.000                     : Chapter 1
00:05:02.680                     : Chapter 2
 
http://www.imdb.com/title/tt0376994/
